<?xml version="1.0" encoding="utf-8"?>
<!-- Generator: Adobe Illustrator 21.0.2, SVG Export Plug-In . SVG Version: 6.00 Build 0)  -->
<svg version="1.1" id="ps_x5F_cc_x5F_app_x5F_RGB.svg"
	 xmlns="http://www.w3.org/2000/svg" xmlns:xlink="http://www.w3.org/1999/xlink" x="0px" y="0px" viewBox="0 0 512 512"
	 style="enable-background:new 0 0 512 512;" xml:space="preserve">
<style type="text/css">
	.st0{fill:#FF26BE;}
	.st1{fill:#2E001F;}
	.st2{fill:#FFD9F2;}
</style>
<g>
	<path class="st0" d="M418.1,500.7H93.9C44.7,500.7,5,461,5,411.8V100.2C5,51,44.7,11.3,93.9,11.3h324.2c49.2,0,88.9,39.7,88.9,88.9
		v311.7C507,461,467.3,500.7,418.1,500.7z"/>
	<path class="st1" d="M410.2,479.8H101.8c-41.8,0-75.9-34.1-75.9-75.9V108.1c0-41.8,34.1-75.9,75.9-75.9h308.1
		c42,0,75.9,34.1,75.9,75.9v295.6C486.1,445.7,452,479.8,410.2,479.8z"/>
	<path class="st2" d="M203.5,240.3l58.6,112.5c1,1.7,0.4,3.3-1.3,3.3h-36.4c-2.3,0-3.3-0.6-4.4-2.7c-13.4-27.6-27-55.2-41-84.9h-0.4
		c-12.6,28-26.4,57.5-39.7,85.1c-1,1.7-2.1,2.3-3.8,2.3h-34.5c-2.1,0-2.3-1.7-1.3-2.9l57.3-109.2l-55.4-110.4
		c-1.3-1.7,0-2.9,1.3-2.9h36c2.1,0,2.9,0.4,3.8,2.3c13.2,27.6,26.6,56.1,39.1,83.9h0.4c12.1-27.6,25.5-56.3,38.5-83.7
		c1-1.7,1.7-2.7,3.8-2.7h33.7c1.7,0,2.3,1.3,1.3,2.9L203.5,240.3z M272.3,274.4c0-48.7,32.4-86.8,83.9-86.8c4.4,0,6.7,0,10.9,0.4
		v-55.4c0-1.3,1-2.1,2.1-2.1h33c1.7,0,2.1,0.6,2.1,1.7v192c0,5.6,0,12.8,1,20.5c0,1.3-0.4,1.7-1.7,2.3c-17.6,8.4-36,12.1-53.5,12.1
		C304.7,359.3,272.3,331.3,272.3,274.4z M367.1,220.9c-2.9-1.3-7.1-2.1-12.1-2.1c-26.4,0-44.8,20.3-44.8,54c0,38.5,18.8,54,42.5,54
		c5,0,10.5-0.6,14.4-2.3V220.9z"/>
</g>
</svg>
