<svg xmlns="http://www.w3.org/2000/svg" xmlns:xlink="http://www.w3.org/1999/xlink" width="397.5" height="191.25"><defs><linearGradient id="a"><stop offset="0" stop-color="#70b0df"/><stop offset=".5" stop-color="#1b81c5"/><stop offset="1" stop-color="#4a98ce"/></linearGradient><linearGradient id="b" x1="162.67" x2="162.67" y1="14.45" y2="175.03" gradientUnits="userSpaceOnUse" xlink:href="#a"/></defs><g fill="#8c96a1"><path fill-rule="evenodd" d="M48.82 92.92l-36.61 82.02h23.94l7.12-17.38h36.8l7.13 17.38h23.94l-36.7-82.02H48.82zm13 19.34l6.22 15.6 6.21 15.6-12.38.02-12.4.04 6.18-15.63 6.18-15.63zM226.43 92.92l-36.62 82.02h23.95l7.12-17.38h36.8l7.12 17.38h23.95l-36.71-82.02h-25.61zm13 19.34l6.21 15.6 6.22 15.6-12.4.02-12.38.04 6.18-15.63 6.17-15.63zM295.01 92.64h27.2l17.4 26.15 18.43-26.15h26.8l-32.3 39.75 34.4 42.83h-27.2L340 147.3l-19.36 27.92h-29.03l35.05-42.43z"/><path stroke-linecap="round" stroke-width="4.5" d="M179.94 57.93l-32.56 32.03 11.21 10.14 10.6-10.66h1.19v61.15c0 7.77-6.25 14.02-14.02 14.02h-11.13a13.98 13.98 0 0 1-14.02-14.02v-6.52h-21.65v8.13a25.28 25.28 0 0 0 25.34 25.33h28.77A25.28 25.28 0 0 0 189 152.2V89.48h.84l12.39 10.62 9.74-10.14-32.03-32.03z" color="#000" overflow="visible" style="isolation:auto;mix-blend-mode:normal;marker:none"/><path stroke-linecap="round" stroke-width="4.5" d="M120.23 137.33l32.56-32.02-11.2-10.15-10.61 10.66h-1.19V44.67c0-7.77 6.25-14.02 14.02-14.02h11.13c7.77 0 14.02 6.25 14.02 14.02v6.53h21.65v-8.13a25.28 25.28 0 0 0-25.34-25.34H136.5a25.28 25.28 0 0 0-25.33 25.34v62.71h-.84L97.94 95.16l-9.74 10.15 32.03 32.02z" color="#000" overflow="visible" style="isolation:auto;mix-blend-mode:normal;marker:none"/></g><path fill="url(#b)" fill-rule="evenodd" stroke="#0c4c75" stroke-width=".5" d="M136.5 15.73a25.28 25.28 0 0 0-25.33 25.34v62.7h-.84l-12.39-10.6-9.74 10.14 32.03 32.02 32.56-32.02-11.21-10.15-10.6 10.66h-1.19V42.67c0-7.77 6.25-14.02 14.02-14.02h11.13c7.76 0 14.02 6.25 14.02 14.02v6.53h21.65v-8.13a25.28 25.28 0 0 0-25.34-25.34H136.5zm43.44 40.2l-32.56 32.03L158.6 98.1l10.6-10.66h1.19v61.15c0 7.77-6.25 14.02-14.02 14.02h-11.13a13.98 13.98 0 0 1-14.02-14.02v-6.52h-21.65v8.13a25.28 25.28 0 0 0 25.34 25.33h28.77A25.28 25.28 0 0 0 189 150.2V87.48h.84l12.39 10.62 9.74-10.14-32.03-32.03zm115.07 34.71l31.65 40.15-35.05 42.43h29.03L340 145.3l19.75 27.92h27.2l-34.4-42.83 32.3-39.75h-26.8L339.6 116.8l-17.39-26.15h-27.2zm-246.19.28l-36.61 82.02h23.94l7.12-17.38h36.8l7.13 17.38h23.94l-36.7-82.02H48.82zm177.6 0l-36.61 82.02h23.95l7.12-17.38h36.8l7.12 17.38h23.95l-36.71-82.02h-25.61zm-164.6 19.34l6.22 15.6 6.21 15.6-12.38.02-12.4.04 6.18-15.63 6.18-15.63zm177.61 0l6.21 15.6 6.22 15.6-12.4.02-12.38.04 6.18-15.63 6.17-15.63z"/></svg>