<svg xmlns="http://www.w3.org/2000/svg" xmlns:xlink="http://www.w3.org/1999/xlink" width="2000" height="2008.28"><defs><linearGradient id="a"><stop offset="0" stop-color="#070135"/><stop offset="1" stop-color="#612d50"/></linearGradient><linearGradient id="b" x1="314.62" x2="427.38" y1="547.21" y2="432.48" gradientTransform="translate(-52)" gradientUnits="userSpaceOnUse" xlink:href="#a"/></defs><g transform="translate(-3987.6 -6644.88) scale(15.62304)"><rect width="128.02" height="128.55" x="255.24" y="425.33" fill="url(#b)" ry="20.68"/><g style="text-align:center;line-height:100%;-inkscape-font-specification:Sans"><path d="M320.21 480.67c3.27 0 5.75-.72 7.44-2.14 1.69-1.42 2.53-3.52 2.53-6.3 0-2.73-.84-4.8-2.53-6.23-1.69-1.46-4.17-2.19-7.44-2.19h-11.48v16.86h11.48m.7 34.82c4.17 0 7.3-.87 9.38-2.61 2.12-1.74 3.18-4.37 3.18-7.9 0-3.44-1.04-6.02-3.13-7.73-2.08-1.74-5.22-2.61-9.43-2.61h-12.18v20.85h12.18m19.3-28.64c4.45 1.28 7.9 3.65 10.34 7.1 2.45 3.44 3.67 7.68 3.67 12.69 0 7.68-2.62 13.4-7.87 17.17-5.25 3.77-13.22 5.66-23.93 5.66H288v-79.63h31.15c11.17 0 19.25 1.67 24.25 5.01 5.03 3.34 7.54 8.7 7.54 16.06 0 3.87-.92 7.18-2.75 9.92a16.22 16.22 0 0 1-7.97 6.02" style="line-height:100%;-inkscape-font-specification:Sans Bold" fill="#fff" font-family="Sans" font-size="109.8" font-weight="700" letter-spacing="0" text-anchor="middle" word-spacing="0"/></g></g></svg>