<svg xmlns="http://www.w3.org/2000/svg" preserveAspectRatio="xMinYMin meet" viewBox="0 0 256 304"><path fill="#EE4323" d="M13.1 287.3c-5.2 0-6.71-3.02-6.71-7.56 0-1.52.19-3.22.42-5.02 1.14-7.85 3.92-12.35 10.64-12.35 4.54 0 6.76 2.04 6.76 5.73v1.8h4.5c.06 0 .06-1.66.06-2.04 0-5.39-3.27-10.5-11.31-10.5-10.93 0-15.42 5.93-17.08 17.57a29.86 29.86 0 0 0-.38 4.58c0 6.86 2.7 13.1 12.35 13.1 7.33 0 11.69-3.58 14.24-7.98l-4.3-2.9c-2.8 4.4-5.83 5.58-9.19 5.58zm29.57-21.66c-8.75 0-12.53 4.49-13.8 13.43a23.32 23.32 0 0 0-.25 3.12c0 5.77 2.7 10.37 10.17 10.37 8.75 0 12.59-4.69 13.86-13.49.15-1.13.24-2.17.24-3.21 0-5.87-2.79-10.22-10.22-10.22zm3.65 13.43c-.95 6.49-2.98 8.47-6.82 8.47-3.07 0-4.58-1.28-4.58-5.1 0-.95.1-2.09.28-3.37.95-6.43 2.84-8.42 6.72-8.42 3.12 0 4.68 1.28 4.68 5.16 0 .94-.1 2.03-.28 3.26zm28.58-21.24l-1.47 8.68c-.1.76-.04.5.24 1.22a10.45 10.45 0 0 0-5.49-1.73c-7.85 0-12.25 3.55-13.67 13.49a19.41 19.41 0 0 0-.24 3.17c0 7.24 4.26 9.94 9.98 9.94 2.42 0 4.78.05 6.63-1.51l.47 2.94h4.54l5.3-36.2h-6.3zm-4.5 28.34a10.86 10.86 0 0 1-5.48 1.56c-3.46 0-4.4-1.8-4.4-4.68 0-1.1.14-2.37.33-3.74 1.09-7.52 3.5-8.85 6.62-8.85a10 10 0 0 1 5.07 1.14l-2.14 14.57zM95 265.64c-8.65 0-12.72 4.11-14.1 13.43a26.2 26.2 0 0 0-.23 3.27c0 6.38 3.26 10.22 10.45 10.22 5.58 0 9.75-2.32 11.97-6.58l-4.78-1.94a7.1 7.1 0 0 1-6.48 3.5c-3.5 0-4.92-.94-4.92-4.07 0-.61.05-1.5.15-1.5h17.07c.24-2.42.52-4.13.52-5.54 0-4.73-1.8-10.8-9.64-10.8zm3.27 11.5h-10.4c1.03-2.42 2.78-6.15 6.38-6.15 2.79 0 4.16 1.63 4.16 4.42 0 .47-.04 1.73-.14 1.73zm24.59-12.07l.57-4.83h-13.35l-.56 4.83h3.5l-3.78 24.13h-3.5l-.57 4.83h13.34l.57-4.83h-3.5l3.78-24.13h3.5zm27.11 7.24l1.7-4.83h-4.58l-3.31.68a13.1 13.1 0 0 0-6.72-2.06c-6.77 0-12.54 3.27-12.54 10.7a7.9 7.9 0 0 0 1.66 4.9c-1.42.75-2.65 2.02-2.65 3.73 0 .75.28 1.53.85 2.23a9.05 9.05 0 0 0-4.58 7.84c0 6.4 6.66 7.76 11.77 7.76 6.44 0 14.1-1.47 14.1-9.66 0-2.79-1.75-4.97-6.81-5.91l-9.13-1.7c-1.04-.2-1.28-.53-1.28-1 0-.71.43-1.09 1.14-1.09l.62.1c1.23.28 2.65.42 4.11.42 6.58 0 12.44-2.84 12.44-10.22a6.7 6.7 0 0 0-.66-2.88c.8.38 1.85 1 2.27 1h1.6v-.01zm-13 19.58c1.79.33 2.4 1 2.4 2.18 0 3.83-4.11 4.3-7.1 4.3-4.53 0-6.24-1.08-6.24-3.5 0-2.13.62-3.12 2.04-4.63l8.9 1.65zm-1.95-12.39c-2.74 0-4.26-1-4.26-3.36 0-3.5 2.04-5.54 5.59-5.54 2.83 0 4.2 1.19 4.2 3.5 0 3.5-1.98 5.4-5.53 5.4zm31.76-13.86c-2.65 0-5.02 1.3-7.95 3.61l-.43-1.77h-5.2l-3.64 26.55h6.29l2.74-20.13c1.85-1.14 4.12-2.79 6.06-2.79 2.36 0 3.22 1.15 3.22 3.32 0 .52-.05 2.06-.15 2.63l-2.31 16.97h6.29l2.31-17.1c.1-.8.2-2.13.2-2.88 0-4.5-2.14-8.41-7.43-8.41zm19.38 21.74l.05-.65 2.74-19.25h-10.46l-.66 4.83h4.59c-.38 0-.62.42-.66.8l-1.9 12.82c-.09.62-.14 1.9-.14 2.42 0 3.31 1.8 5.68 5.49 5.68h3.22l.7-4.83h-2.03c-.7 0-.94-1.25-.94-1.82zm4.06-29.55h-6.15c-.37 0-.37-1.4-.42-.92l-.86 6.8c-.04.43-.04 1.36.33 1.36h6.16c.38 0 .38-1.65.42-2.08l.86-5.25c.05-.48.05.09-.34.09zm12.84 29.71c-1.56 0-2.32-.66-2.32-2.08l.05-.1 1.98-13.05h7.2l2.17-4.83h-8.7l1.46-10.62-6.62 2.12-1.19 8.5h-3.83l-.66 4.83h4.45c-.43 2.41-.85.85-.9 1.32l-1.7 11.45c-.1.52-.1.9-.1 1.37 0 4.5 3.31 6.18 7.3 6.18 3.68 0 6.66-1.08 8.98-3.02l-2.94-3.61c-1.47.9-2.46 1.54-4.64 1.54zm23.08-21.9c-8.65 0-12.72 4.11-14.1 13.43a26.56 26.56 0 0 0-.23 3.27c0 6.38 3.26 10.22 10.45 10.22 5.58 0 9.75-2.32 11.97-6.58l-4.78-1.94a7.11 7.11 0 0 1-6.48 3.5c-3.5 0-4.92-.94-4.92-4.07 0-.61.05-1.5.15-1.5h17.07c.24-2.42.52-4.13.52-5.54 0-4.73-1.8-10.8-9.65-10.8zm3.27 11.5H219c1.04-2.42 2.79-6.15 6.39-6.15 2.79 0 4.16 1.63 4.16 4.42 0 .47-.05 1.73-.14 1.73zm23.8-11.5c-2.28 0-4.4 1.3-6.54 3.33l-.37-1.49h-5.2l-3.65 26.55h6.34l2.8-20.56c1.65-.99 3.54-1.84 5.34-1.84 1.13 0 2.22-.18 3.26-.04l.81-5.48c-.95-.19-1.9-.47-2.8-.47zM92.53 238.8c-14.32-6.19-27.72-21.92-27.75-38.02-.04-17.55 11.08-32.45 24.91-42.24-1.66 6.28-2.57 12.03 1.55 17.65a16.69 16.69 0 0 0 16.88 6.39c14.8-3.24 15.48-19.51 6.7-29-8.67-9.38-17.07-19.98-13.76-33.6 1.65-6.82 5.84-13.21 11.15-17.78-4.08 10.72 7.51 21.3 15.15 26.56 13.25 9.14 27.79 16.04 39.97 26.76 12.82 11.25 22.28 26.48 20.37 44.13-2.07 19.14-17.27 32.45-34.33 39.17 36.04-7.96 73.28-35.93 74.05-75.9.63-32.89-21.93-58.2-49.88-72.69l-1.46-.8a11.9 11.9 0 0 1 1 4.87 17 17 0 0 0 .46-3.23 15.73 15.73 0 0 1-.51 3.9l.04-.67a16.38 16.38 0 0 1-2.07 4.93l.41-.44c-5.57 9.24-20.66 11.25-28.12 1.68-11.99-15.4.25-32.01 1.96-48.32C151.41 31.72 138.6 11.87 122.7 0c8.76 14.16-2.78 32.9-12 43.37-8.95 10.15-19.83 18.63-29.7 27.85-10.62 9.91-20.82 20.35-29.54 31.98-17.44 23.27-28.12 52.55-20.27 81.59 7.84 29.01 32.98 47.49 61.36 54.02z"/></svg>