<svg xmlns="http://www.w3.org/2000/svg" viewBox="0 0 512 512"><path fill="#264de4" d="M437.4 100.6l-33 370.2L255.8 512l-148.1-41.1-33-370.3h362.7z"/><path fill="#2965f1" d="M376 447.3l28.2-316.4H256v349.6l120-33.2z"/><path fill="#ebebeb" d="M150.3 268.2l4.1 45.4H256v-45.4H150.3zM256 176.3H142.1l4.1 45.4H256v-45.4zm0 257.1v-47.3l-.2.1-50.6-13.7-3.2-36.2h-45.6l6.4 71.3 93 25.8h.2z"/><path d="M160 0h55v23h-32v23h32v23h-55V0zm66 0h55v20h-32v4h32v46h-55V49h32v-4h-32V0zm66 0h55v20h-32v4h32v46h-55V49h32v-4h-32V0z"/><path fill="#fff" d="M311.8 313.6l-5.3 58.9-50.7 13.7v47.3l93.1-25.8.7-7.7 10.7-119.5 1.1-12.2 8.2-91.9H255.8v45.4h64l-4.1 46.5h-59.9v45.4h56z"/></svg>