<?xml version="1.0" encoding="utf-8"?>
<!-- Generator: Adobe Illustrator 21.0.2, SVG Export Plug-In . SVG Version: 6.00 Build 0)  -->
<svg version="1.1" id="Capa_1" xmlns="http://www.w3.org/2000/svg" xmlns:xlink="http://www.w3.org/1999/xlink" x="0px" y="0px"
	 viewBox="0 0 430.1 430.1" style="enable-background:new 0 0 430.1 430.1;" xml:space="preserve">
<style type="text/css">
	.st0{fill:#0678BE;}
</style>
<g>
	<path id="Drupal" class="st0" d="M309,80c-22-13.7-42.9-19.1-63.6-32.8c-12.9-8.7-30.8-29.4-45.7-47.2
		C196.8,28.6,188,40.2,178,48.5C156.9,65.1,143.6,70,125.2,80c-15.4,7.9-99,57.6-99,164.5c0,106.9,90.2,185.6,190.4,185.6
		c100.2,0,187.1-72.5,187.1-182.3C403.8,138,322.3,88.3,309,80z M310.7,388.3c-2.1,2.1-21.2,15.3-43.7,17.4
		c-22.5,2.1-52.8,3.3-71.1-13.3c-2.9-2.9-2.1-7,0-8.7c2.1-1.7,3.7-2.9,6.2-2.9s2.1,0,3.3,0.8c8.3,6.6,20.8,12,47.4,12
		c26.6,0,45.4-7.4,53.7-13.7c3.7-2.9,5.4-0.4,5.8,1.3C312.8,382.9,313.6,385.4,310.7,388.3z M238.7,353.4
		c4.6-4.2,12.1-10.8,19.2-13.7c7.1-2.9,10.8-2.5,17.4-2.5c6.6,0,13.7,0.4,18.7,3.8c5,3.3,7.9,10.8,9.5,14.9c1.7,4.2,0,6.6-3.3,8.3
		c-2.9,1.6-3.3,0.8-6.2-4.6c-2.9-5.4-5.4-10.8-20-10.8c-14.5,0-19.1,5-26.2,10.8c-7.1,5.8-9.6,7.9-12.1,4.6
		C233.3,360.9,234.1,357.6,238.7,353.4z M388.7,274.4c0,12.8-4.1,36-14.1,50.5c-9.9,14.5-16.2,19.9-27.9,19.1
		c-15-1.3-44.9-47.7-64-48.5c-24.1-0.8-76.5,50.2-117.7,50.2c-25,0-32.4-3.7-40.7-9.1c-12.5-8.7-18.7-22-18.3-40.2
		c0.4-32.3,30.8-62.6,69-63c48.6-0.4,82.3,48,106.8,47.6c20.8-0.4,60.7-41,80.3-41C382.9,240,388.7,261.6,388.7,274.4z"/>
</g>
</svg>
