<svg xmlns="http://www.w3.org/2000/svg" xmlns:xlink="http://www.w3.org/1999/xlink" width="380" height="380"><defs><linearGradient id="a" x1="187.95" x2="187.95" y1="123.86" y2="258.87" gradientUnits="userSpaceOnUse"><stop offset="0" stop-color="#bf0000"/><stop offset="1" stop-color="#8f0000"/></linearGradient><linearGradient id="b" x1="187.95" x2="187.95" y1="123.86" y2="258.87" gradientTransform="matrix(2.17444 0 0 2.17437 -218.69 -223.17)" gradientUnits="userSpaceOnUse" xlink:href="#a"/></defs><path fill="url(#b)" d="M0 12.72V29.5c7.01 0 12.72 5.7 12.72 12.72 0 7.02-5.7 12.72-12.72 12.72v16.78c7.01 0 12.72 5.7 12.72 12.72 0 7.02-5.7 12.72-12.72 12.72v16.78a12.74 12.74 0 0 1 0 25.46v16.77a12.73 12.73 0 0 1 0 25.45v16.77a12.73 12.73 0 0 1 0 25.45v16.77a12.73 12.73 0 0 1 0 25.45v16.77a12.73 12.73 0 0 1 0 25.45v16.77a12.73 12.73 0 0 1 0 25.45v16.78A12.8 12.8 0 0 1 9 371a12.81 12.81 0 0 1 3.72 9H29.5a12.73 12.73 0 0 1 25.44 0h16.78a12.73 12.73 0 0 1 25.44 0h16.78a12.73 12.73 0 0 1 25.45 0h16.77a12.73 12.73 0 0 1 25.45 0h16.77a12.73 12.73 0 0 1 25.45 0h16.77a12.73 12.73 0 0 1 25.45 0h16.78a12.73 12.73 0 0 1 25.44 0h16.78a12.73 12.73 0 0 1 25.44 0h16.79a12.8 12.8 0 0 1 3.73-9 12.8 12.8 0 0 1 9-3.72V350.5c-7.03 0-12.73-5.7-12.73-12.72 0-7.02 5.7-12.72 12.72-12.72v-16.78c-7.02 0-12.72-5.7-12.72-12.72 0-7.02 5.7-12.72 12.72-12.72v-16.78c-7.02 0-12.72-5.7-12.72-12.72 0-7.02 5.7-12.72 12.72-12.72v-16.78c-7.02 0-12.72-5.7-12.72-12.72 0-7.02 5.7-12.72 12.72-12.72v-16.77a12.73 12.73 0 0 1 0-25.44V139.4a12.74 12.74 0 0 1 0-25.46V97.17c-7.02 0-12.72-5.7-12.72-12.72 0-7.01 5.7-12.72 12.72-12.72V54.95c-7.02 0-12.72-5.7-12.72-12.72 0-7.01 5.7-12.72 12.72-12.72V12.72c-3.35 0-6.63-1.35-9-3.72a12.81 12.81 0 0 1-3.72-9H350.5c0 7.02-5.7 12.72-12.72 12.72-7.02 0-12.73-5.7-12.73-12.72h-16.77c0 7.02-5.7 12.72-12.72 12.72-7.02 0-12.73-5.7-12.73-12.72h-16.77c0 7.02-5.71 12.72-12.72 12.72-7.02 0-12.73-5.7-12.73-12.72h-16.77a12.74 12.74 0 0 1-25.45 0h-16.77a12.74 12.74 0 0 1-25.45 0h-16.78c0 7.02-5.7 12.72-12.72 12.72-7.01 0-12.72-5.7-12.72-12.72H97.17c0 7.02-5.7 12.72-12.72 12.72-7.01 0-12.72-5.7-12.72-12.72H54.95c0 7.02-5.7 12.72-12.72 12.72-7.01 0-12.72-5.7-12.72-12.72H12.72c0 3.35-1.36 6.63-3.72 9a12.83 12.83 0 0 1-9 3.72z"/><path fill="#fff" d="M323.71 152.05H134.1l9.9-46.3h115.57l10.6-49.83H104.05L51.74 302.6h50.19l22.97-107.8h120.37l-104.6 103.56 18.38 32.51c8.48-5.65 22.27-6.36 31.8-6.36 16.98 0 33.59 5.66 50.9 5.66 15.88 0 32.13-1.07 58.64-13.79l9.26-43.47c-18.03 7.42-44.7 14.49-67.9 14.49-9.54 0-18.37-2.12-27.56-3.53l101.4-98.6 8.12-33.23z"/></svg>