<svg xmlns="http://www.w3.org/2000/svg" id="Layer_1" viewBox="0 0 512 512"><path id="XMLID_38_" fill="#f03c2e" d="M495.3 233.8L278.2 16.7c-12.4-12.4-32.6-12.4-45.4 0l-45.1 45.1 57.1 57.1c13.4-4.6 28.4-1.6 39.2 9.1a38.04 38.04 0 0 1 9.1 39.5l55.2 55.2c13.4-4.6 28.7-1.6 39.5 9.1 15 15 15 38.9 0 53.9s-38.9 15-53.9 0a38.11 38.11 0 0 1-8.2-41.5L274.6 193v135.2c3.6 2 7.2 4.2 10.1 7.2 15 15 15 38.9 0 53.9s-39.2 15-53.9 0c-15-15-15-39.2 0-53.9 3.6-3.6 7.8-6.5 12.4-8.2V190.7c-4.6-2-8.8-4.6-12.4-8.2-11.4-11.4-14-27.8-8.2-41.8l-57.1-56.8L16.7 232.8c-12.4 12.4-12.4 32.6 0 45.4l217.1 217.1c12.4 12.4 32.6 12.4 45.4 0l216.1-216.1c12.4-12.8 12.4-33 0-45.4"/></svg>