<?xml version="1.0" encoding="utf-8"?>
<!-- Generator: Adobe Illustrator 21.0.2, SVG Export Plug-In . SVG Version: 6.00 Build 0)  -->
<svg version="1.1" id="Layer_1" xmlns="http://www.w3.org/2000/svg" xmlns:xlink="http://www.w3.org/1999/xlink" x="0px" y="0px"
	 viewBox="0 0 256 258" style="enable-background:new 0 0 256 258;" xml:space="preserve">
<style type="text/css">
	.st0{fill:#F9AE41;}
	.st1{fill:#EE4035;}
	.st2{fill:#4F91CD;}
	.st3{fill:#7AC043;}
</style>
<path class="st0" d="M255.7,35.6c0-18.6-15.1-33.7-33.7-33.7c-17,0-31,12.6-33.3,28.9l-0.3-0.2c-27.6-12.4-50.8,9.6-50.8,9.6
	l-61.4,61.7l24.3,23.4l49.4-48.5c23.1-23.1,35.6-7.5,35.6-7.5c17.4,14.7,0.6,32,0.6,32l24.9,24c20.3-21.9,21.5-41.1,15.3-56.3
	C242.8,66.9,255.7,52.7,255.7,35.6"/>
<path class="st1" d="M226.5,190.5c0.1-0.2,0.2-0.3,0.2-0.3c12.4-27.6-9.6-50.8-9.6-50.8L155.4,78l-23.4,24.3l48.5,49.4
	c23.1,23.1,7.5,35.6,7.5,35.6c-14.7,17.4-32,0.6-32,0.6l-24,24.9c21.9,20.3,41.1,21.5,56.3,15.3c2.1,16.6,16.2,29.5,33.4,29.5
	c18.6,0,33.7-15.1,33.7-33.7C255.4,206.9,242.9,192.8,226.5,190.5"/>
<path class="st2" d="M155.9,133l-49.4,48.5c-23.1,23.1-35.6,7.5-35.6,7.5c-17.4-14.7-0.6-32-0.6-32l-24.9-24
	C25.1,155,24,174.1,30.1,189.3c-16.6,2.1-29.5,16.2-29.5,33.4c0,18.6,15.1,33.7,33.7,33.7c17,0,31-12.6,33.3-28.9
	c0.2,0.1,0.3,0.2,0.3,0.2c27.6,12.4,50.8-9.6,50.8-9.6l61.4-61.7L155.9,133"/>
<path class="st3" d="M75.7,106.6C52.7,83.5,68.3,71,68.3,71c14.7-17.4,32-0.6,32-0.6l24-24.9C102.3,25.2,83.2,24,68,30.2
	C65.9,13.6,51.8,0.7,34.6,0.7C16,0.7,0.9,15.8,0.9,34.4c0,17,12.6,31,28.9,33.3c-0.1,0.2-0.2,0.3-0.2,0.3
	c-12.4,27.6,9.6,50.8,9.6,50.8l61.7,61.4l23.4-24.3L75.7,106.6"/>
</svg>
