<svg xmlns="http://www.w3.org/2000/svg" id="Layer_1" viewBox="0 0 512 512"><style>.st0{fill:#131b28}.st1{fill:#0868ac}</style><path d="M149.5 395.3l-4 14.1 4-14.1zM169.9 425.8h-4.4 4.4zM174.3 425.8h-4.4 4.4zM171.1 445l4.6-17.4-4.6 17.4zM267.6 364.8l-8.5 40 8.5-40zM245.7 364.8l-6.5 29.9 6.5-29.9z" class="st0"/><path d="M266.2 363H248c-1 0-2 .8-2.2 1.8l-6.5 29.9-6.5 29.9c-.2 1-1.2 1.8-2.2 1.8h-12.8c-12.7 0-11.3-8.8-8.7-20.9 0-.1.1-.2.1-.4l.3-1.5c0-.1 0-.2.1-.3l.6-3.1.6-3.3c.2-1 .5-2.5.7-3.4l2.9-14.3 2.9-14.3c.2-1-.5-1.8-1.5-1.8h-18.7c-1 0-2 .8-2.2 1.8l-4 19-4 19-.4 1.8c-4.6 21.1-3.4 41.2 21.7 41.9h40.1c1 0 2-.8 2.2-1.8l8.5-40 8.5-40c.3-.9-.3-1.8-1.3-1.8z" class="st1"/><path d="M338.7 426.6c1 0 1.7.8 1.5 1.8l-1.8 8.6M290.1 415.5c0-.9 1.1-2.6 2.1-2.6h-2.3c-1.1 10.3.2 2.6.2 2.6z" class="st0"/><path d="M338.7 426.6c1 0 1.7.8 1.5 1.8l-1.8 8.6-.3 1.4M37.5 415.7l2.8-12.5-3.2 14.3-3.1 14.6 2.7-12.8c.2-1 .6-2.6.8-3.6z" class="st0"/><path d="M71.3 362.8h-20c-1 0-2 .8-2.2 1.8l-1.9 8.4-1.9 8.4c-.2 1 .4 1.8 1.4 1.8h20.1c1 0 2-.8 2.2-1.8l2-8.4 1.8-8.4c.2-1-.4-1.8-1.5-1.8z" class="st1"/><path d="M67 390.6l-5.9 27.1 5.9-27.1zM43.2 390.6l-2.8 12.5 2.8-12.5z" class="st0"/><path d="M65.5 388.9H45.4c-1 0-2 .8-2.2 1.8l-2.8 12.5-2.8 12.5c-.2 1-.6 2.6-.8 3.6L34 432.1l-2.7 12.8c-.2 1-.6 2.6-1 3.5 0 0-3.8 11.2-10.1 11.1h-.8c-3.1-.1-5.5-.1-5.5-.1-1 0-2 .8-2.3 1.8L9.5 470l-2.1 8.8c-.2 1 .4 1.8 1.4 1.8 3.6 0 11.6.1 16.5.1 15.8 0 24.1-8.8 29.5-33.9l6.2-28.9 5.9-27.1c.3-1.1-.3-1.9-1.4-1.9z" class="st1"/><path d="M351.5 446.6c-1 0-1.7-.8-1.4-1.8l15.1-70.9M372.6 444.8l6.1-30.3-6.1 30.3z" class="st0"/><path d="M350.3 445.7c-.1-.5-.1-1.7.2-2.7l7.2-33.7-7.6 35.5c-.2 1 .4 1.8 1.5 1.8h1.8c-1 0-3-.4-3.1-.9zM375.7 429.7l2.7-13.4-2.7 13.4zM435.4 378.6l.8 3.4c.2 1-.4 1.8-1.4 1.8M373 443l2.7-13.3L373 443zM434.6 375.1l.8 3.5-.8-3.5zM378.4 416.3l.7-3.6 2.9-13.5-3.3 15.3-.3 1.8zM365.5 372.7c-.2 1-.5 2.2-.6 3l-7.2 33.7 7.6-35.5.2-1.2z" class="st0"/><path d="M436.3 382.1l-.8-3.4-.8-3.5-.4-1.8c-1.6-6.4-6.4-10-16.9-10h-47.9c-1 0-2 .8-2.2 1.8l-.7 3.5-.9 4.1-.2 1.2-7.6 35.5-7.2 33.7c-.2 1-.3 2.2-.2 2.7.1.5 2.1.9 3.1.9h15.2c1 0 2.3-.2 2.8-.4.6-.2 1.4-2.2 1.6-3.2l2.7-13.3 2.7-13.3.4-1.8 3.3-15.3 2.9-13.5c.2-1 1.2-1.8 2.2-1.8h47.7c.7-.3 1.4-1.1 1.2-2.1z" class="st1"/><path d="M497.7 350.9h-19c-1 0-2.3.7-2.9 1.5L442 401.9c-.6.8-1.2.7-1.4-.3l-2.5-10.9c-.2-1-1.2-1.8-2.2-1.8h-21.7c-1 0-1.6.8-1.3 1.8l9.7 34.1c.3 1 .3 2.6 0 3.5l-4.2 16.5c-.3 1 .4 1.8 1.4 1.8h21.5c1 0 2-.8 2.3-1.8l4.2-16.5c.3-1 1-2.4 1.6-3.2l54.9-72.8c.6-.8.3-1.5-.7-1.5l-5.9.1zM325.1 393.6c-.1 1.1-1.1 1.9-2.1 1.9h-27.5c-.9 0-1.4-.6-1.3-1.4v-.2s.1-.2.1-.5c2.6-7 8-11.6 18.1-11.6 11.3 0 13.5 5.6 12.7 11.8zm-8-31.8c-35.4 0-43.7 21.5-48.4 43.1-4.7 22.1-4.3 42.7 32.3 42.7h10.4c9.7 0 19.3-.1 23.3-.1 1 0 2-.8 2.2-1.8l1.5-7.2.3-1.4 1.8-8.6c.2-1-.5-1.8-1.5-1.8h-32.9c-13.1 0-17-3.5-15.5-13.7h52.6c.8 0 1.6-.6 1.9-1.4.1-.1.1-.3.1-.5 7.5-29.4 5.3-49.3-28.1-49.3zM150 393.5l-.5 1.8-4 14.1-4 14.1c-.3 1-1.3 1.8-2.3 1.8h-21c-15.9 0-19.8-12.5-15.9-30.8 3.9-18.8 11.5-30.5 27.2-31.7 21.4-1.8 25.7 13.3 20.5 30.7zm14.4 30.6s9.9-24.1 12.2-37.9c3.1-18.6-6.2-45.6-42.2-45.6-35.8 0-51.3 25.7-57.2 53.7-5.9 28.2 1.8 52.9 37.4 52.7l28-.1 26.2-.1c1 0 2-.8 2.3-1.8l4.6-17.4c.3-1-.4-1.8-1.4-1.8h-8.8c-.9 0-1.4-.6-1.2-1.3 0-.1 0-.3.1-.4zM103.9 104c-28.4 40.8-24.9 94-3.2 137.4.5 1 1.1 2.1 1.6 3.1.3.6.7 1.3 1 2 .2.4.4.8.6 1.1.4.7.7 1.3 1.1 2l2.1 3.6c.4.6.8 1.3 1.2 1.9.8 1.3 1.6 2.5 2.4 3.8.3.5.7 1.1 1 1.6 1.1 1.7 2.3 3.4 3.5 5l.1.1c.2.3.4.5.6.8a116.84 116.84 0 0 0 4.4 5.7c1 1.2 1.9 2.4 2.9 3.6.4.4.7.9 1.1 1.3 1.3 1.6 2.7 3.1 4.1 4.7l.1.1.2.2c1.4 1.5 2.7 2.9 4.2 4.4.4.5.9.9 1.3 1.3l3.3 3.3c.5.4.9.9 1.4 1.3 1.5 1.4 3 2.8 4.5 4.1l.1.1c.3.2.5.5.8.7l4.1 3.5 1.7 1.4c1.1.9 2.3 1.8 3.4 2.7.6.5 1.2.9 1.8 1.4 1.3.9 2.6 1.9 3.9 2.8.5.3.9.7 1.4 1 .1.1.3.2.4.3 1.2.8 2.5 1.7 3.8 2.5.5.4 1.1.7 1.6 1.1 1.9 1.2 3.9 2.4 5.9 3.6.5.3 1.1.6 1.6.9 1.5.8 2.9 1.7 4.4 2.5.8.4 1.6.8 2.4 1.3 1 .6 2.1 1.1 3.2 1.6.2.1.5.2.7.4.4.2.9.4 1.3.6 1.7.8 3.3 1.6 5 2.3.4.2.7.3 1.1.5 1.9.8 3.9 1.7 5.8 2.4.5.2.9.4 1.4.6 1.8.7 3.7 1.4 5.5 2 .2.1.5.2.7.2 2 .7 4.1 1.4 6.1 2 .5.1 1 .3 1.5.4 2.1.6 4.2 1.4 6.3 1.8 137.4 25.1 177.3-82.6 177.3-82.6-33.5 43.7-93 55.2-149.4 42.4-2.1-.5-4.2-1.1-6.3-1.8-.5-.2-1-.3-1.6-.5-2-.6-4.1-1.3-6.1-2-.3-.1-.6-.2-.8-.3-1.8-.6-3.6-1.3-5.3-2l-1.5-.6c-1.9-.8-3.9-1.6-5.8-2.4-.4-.2-.8-.3-1.2-.5-1.6-.7-3.3-1.5-4.9-2.3-.5-.2-.9-.4-1.4-.7-1.3-.6-2.5-1.3-3.8-1.9-.8-.4-1.7-.9-2.5-1.3-1.5-.8-3-1.7-4.5-2.5l-1.5-.9c-2-1.2-3.9-2.4-5.9-3.6-.5-.3-1.1-.7-1.6-1-1.4-.9-2.8-1.8-4.2-2.8-.5-.3-.9-.6-1.3-.9-1.3-.9-2.6-1.9-4-2.9-.6-.4-1.2-.9-1.8-1.3-1.2-.9-2.4-1.8-3.6-2.8l-1.6-1.3c-1.5-1.2-3-2.5-4.4-3.7-.2-.1-.3-.3-.5-.4-1.6-1.4-3.1-2.8-4.7-4.2-.4-.4-.9-.8-1.3-1.3-1.1-1.1-2.3-2.2-3.4-3.3l-1.3-1.3c-1.4-1.4-2.8-2.9-4.1-4.4l-.2-.2c-1.4-1.6-2.8-3.1-4.2-4.8-.4-.4-.7-.9-1.1-1.3-1-1.2-2-2.5-3-3.7-.4-.4-.7-.9-1.1-1.4-1.2-1.5-2.3-3.1-3.5-4.6-31.3-42.7-42.5-101.6-17.5-149.9" class="st1"/><path d="M192.1 69.6c-20.5 29.6-19.4 69.2-3.4 100.4 2.7 5.2 5.7 10.3 9.1 15.2 3.1 4.4 6.5 9.7 10.6 13.2 1.5 1.6 3 3.2 4.6 4.8l1.2 1.2c1.5 1.5 3.1 3 4.7 4.4.1 0 .1.1.2.2 1.8 1.6 3.6 3.1 5.5 4.6.4.3.8.6 1.2 1 1.9 1.4 3.8 2.9 5.8 4.2.1 0 .1.1.2.1.9.6 1.7 1.2 2.6 1.7.4.3.8.6 1.2.8 1.4.9 2.8 1.8 4.3 2.6.2.1.4.2.6.4 1.2.7 2.5 1.4 3.8 2.1.4.2.9.5 1.3.7.9.5 1.7.9 2.6 1.4.1.1.3.1.4.2 1.8.9 3.6 1.8 5.5 2.6.4.2.8.3 1.2.5 1.5.6 3 1.3 4.5 1.8.6.2 1.3.5 1.9.7a100.36 100.36 0 0 0 6 2c2 .6 3.9 1.4 6 1.7C380 255.7 404.5 174 404.5 174c-22.1 31.8-64.8 47-110.5 35.1-2-.5-4-1.1-6-1.7l-1.8-.6c-1.4-.5-2.8-.9-4.2-1.4-.6-.2-1.3-.5-1.9-.7l-4.5-1.8c-.4-.2-.8-.3-1.2-.5-1.9-.8-3.7-1.7-5.5-2.6-.9-.5-1.9-.9-2.8-1.4-.5-.3-1.1-.5-1.6-.8-1.2-.6-2.4-1.3-3.5-2-.3-.2-.6-.3-.8-.5-1.4-.8-2.8-1.7-4.3-2.6-.4-.3-.8-.6-1.3-.9-.9-.6-1.8-1.2-2.8-1.8-2-1.3-3.9-2.8-5.7-4.2l-1.3-1c-20-15.8-35.8-37.3-43.3-61.8-7.9-25.3-6.2-53.8 7.5-76.9" class="st1"/><path d="M266.3 43.9c-12.1 17.8-13.3 40-4.9 59.7 8.9 20.9 27 37.3 48.2 45.1.9.3 1.7.6 2.6.9.4.1.8.3 1.2.4 1.2.4 2.5.8 3.8 1.1 58.6 11.3 74.5-30.1 78.7-36.2-13.9 20-37.3 24.8-66 17.9-2.3-.5-4.8-1.4-6.9-2.1-2.8-1-5.6-2.1-8.2-3.4-5.1-2.4-10-5.4-14.5-8.8-25.7-19.5-41.6-56.7-24.9-86.9" class="st1"/></svg>