<svg xmlns="http://www.w3.org/2000/svg" id="Layer_1" viewBox="0 0 512 512"><style>.st1{fill:#00678c}</style><path d="M1.7 364.6h16.8v-66.5l26.2 58c3 7 7.2 9.6 15.5 9.6s12.3-2.6 15.4-9.6l26.1-58v66.5h16.9v-66.5c0-6.5-2.6-9.6-8-11.2-12.8-3.9-21.3-.5-25.2 8.1l-25.7 57.3L34.9 295c-3.7-8.6-12.4-12-25.3-8.1-5.3 1.7-7.9 4.8-7.9 11.2v66.5zm130.8-54.2h16.9V347c-.1 2.1.6 6.7 9.8 6.8 4.8.1 36.4 0 36.7 0v-43.6h16.9V370c0 14.7-18.2 17.9-26.7 18.1h-53.2v-11.2h53.3c10.8-1.2 9.6-6.6 9.6-8.4V364H160c-16.7-.1-27.4-7.5-27.5-15.9 0-.7.4-37.4 0-37.7zm362.9-42.3c-10.3-.3-18.3.8-25.1 3.6-1.9.8-5 .8-5.3 3.2 1 1 1.2 2.7 2.1 4.1 1.5 2.6 4.3 6.1 6.7 7.9 2.7 2.1 5.4 4.1 8.3 5.9 5 3.1 10.7 4.9 15.6 8 2.8 1.8 5.7 4.1 8.5 6.1 1.4 1 2.3 2.7 4.1 3.4v-.4c-.9-1.2-1.2-2.8-2.1-4.1-1.3-1.3-2.6-2.5-3.9-3.7-3.7-5-8.4-9.4-13.4-13-4.1-2.8-13.2-6.7-14.9-11.5l-.3-.3c2.8-.3 6.2-1.3 8.9-2.1 4.4-1.2 8.4-.9 12.9-2.1 2.1-.5 4.1-1.2 6.2-1.8v-1.2c-2.3-2.3-4-5.4-6.5-7.6-6.6-5.7-13.8-11.2-21.3-15.9-4-2.6-9.2-4.3-13.4-6.5-1.6-.8-4.1-1.2-5-2.5-2.3-2.8-3.6-6.6-5.3-9.9-3.7-7.1-7.4-15-10.6-22.5-2.3-5-3.7-10.1-6.6-14.7-13.3-22-27.8-35.3-50-48.3-4.8-2.7-10.5-3.9-16.5-5.3-3.2-.1-6.5-.4-9.7-.5-2.1-.9-4.1-3.4-5.9-4.5-7.4-4.6-26.3-14.7-31.8-1.4-3.5 8.4 5.2 16.7 8.1 20.9 2.2 3 5 6.3 6.6 9.7.9 2.2 1.2 4.5 2.1 6.8 2.1 5.7 4 12 6.7 17.3 1.4 2.7 3 5.6 4.8 8 1 1.4 2.8 2.1 3.2 4.4-1.8 2.6-1.9 6.5-3 9.7-4.7 14.6-2.8 32.7 3.7 43.4 2.1 3.2 7 10.3 13.6 7.6 5.8-2.3 4.5-9.7 6.2-16.1.4-1.5.1-2.6.9-3.6v.3c1.8 3.6 3.6 7.1 5.3 10.7 4 6.3 11 12.9 16.8 17.3 3.1 2.3 5.6 6.3 9.4 7.7v-.4h-.3c-.8-1.2-1.9-1.7-3-2.6-2.3-2.3-4.9-5.2-6.7-7.7-5.4-7.2-10.2-15.2-14.5-23.5-2.1-4-3.9-8.4-5.6-12.4-.8-1.6-.8-3.9-2.1-4.6-1.9 2.8-4.8 5.3-6.2 8.8-2.5 5.6-2.7 12.4-3.6 19.5-.5.1-.3 0-.5.3-4.1-1-5.6-5.3-7.1-8.9-3.9-9.2-4.5-23.9-1.2-34.5.9-2.7 4.8-11.2 3.2-13.8-.8-2.5-3.4-3.9-4.8-5.8a48.4 48.4 0 0 1-4.6-8.3c-3.1-7.2-4.6-15.2-8-22.5-1.6-3.4-4.3-6.8-6.5-9.9-2.5-3.5-5.2-5.9-7.1-10.1-.6-1.4-1.5-3.7-.5-5.3.3-1 .8-1.4 1.8-1.7 1.7-1.4 6.5.4 8.1 1.2 4.8 1.9 8.8 3.7 12.8 6.5 1.8 1.3 3.7 3.7 6.1 4.4h2.7c4.1.9 8.8.3 12.7 1.4 6.8 2.2 13 5.4 18.6 8.9 16.9 10.7 30.9 26 40.3 44.2 1.5 3 2.2 5.7 3.6 8.8 2.7 6.3 6.1 12.8 8.8 19 2.7 6.1 5.3 12.3 9.2 17.3 1.9 2.7 9.7 4.1 13.2 5.6 2.6 1.2 6.6 2.2 8.9 3.6 4.4 2.7 8.8 5.8 12.9 8.8 2.4 1.4 8.9 4.6 9.3 7.2z" class="st1"/><path d="M363.6 155.9c-2.2 0-3.7.3-5.3.6v.3h.3c1 2.1 2.8 3.5 4.1 5.3 1 2.1 1.9 4.1 3 6.2l.3-.3c1.8-1.3 2.7-3.4 2.7-6.5-.8-.9-.9-1.8-1.5-2.7-.9-1.2-2.5-1.9-3.6-2.9z" class="st1"/><path fill="#ce8b2c" d="M225.7 364.6h48.6c5.7 0 11.1-1.2 15.5-3.2 7.4-3.4 10.8-7.9 10.8-13.8v-12.4c0-4.8-4-9.3-12-12.4-4.1-1.5-9.3-2.5-14.3-2.5h-20.4c-6.8 0-10.1-2.1-11-6.6-.1-.5-.1-1-.1-1.5v-7.6c0-.4 0-.9.1-1.4.9-3.5 2.7-4.4 8.7-5h49.7V287H254c-6.8 0-10.5.4-13.7 1.4-9.9 3.1-14.3 8-14.3 16.7v9.8c0 7.6 8.5 14.1 23 15.6 1.5.1 3.2.1 4.9.1h17.4c.6 0 1.3 0 1.8.1 5.3.5 7.6 1.4 9.2 3.4 1 1 1.3 1.9 1.3 3.1v9.8c0 1.2-.8 2.7-2.3 4-1.6 1.3-4 2.2-7.2 2.3-.6 0-1 .1-1.7.1h-46.6v11.2h-.1zm180-19.5c0 11.5 8.7 17.9 26 19.2 1.7.1 3.2.3 4.9.3h43.9v-11.2h-44.3c-9.8 0-13.6-2.5-13.6-8.4v-58.1h-16.9v58.2zm-94.4.5v-40c0-10.2 7.2-16.4 21.3-18.3 1.5-.1 3.1-.3 4.5-.3h32c1.7 0 3.1.1 4.8.3 14.1 1.9 21.2 8.1 21.2 18.3v40c0 8.3-3 12.7-9.9 15.6l16.5 15h-19.5L368.8 364l-13.6.8h-18.1c-3 0-6.3-.4-9.8-1.3-10.7-2.9-16-8.6-16-17.9zm18.2-.9c0 .5.3 1 .4 1.7.9 4.6 5.3 7.2 12 7.2h15.2l-13.9-12.7h19.5L375 352a8.5 8.5 0 0 0 4.3-5.4c.1-.5.1-1.2.1-1.7v-38.4c0-.5 0-1-.1-1.5-.9-4.4-5.3-6.8-11.9-6.8H342c-7.5 0-12.4 3.2-12.4 8.4l-.1 38.1zm158.8 20h2.5v-9.4h3.2v-1.9h-9v1.9h3.4l-.1 9.4zm18.7 0h2.3v-11.4h-3.5l-2.8 7.8-3.1-7.8h-3.4v11.4h2.2V356h.1l3.2 8.6h1.7l3.2-8.6.1 8.7z"/></svg>