<svg xmlns="http://www.w3.org/2000/svg" viewBox="0 0 224.1 224.1"><path fill="#221e1f" d="M77.5 44.4c3.2-2.4 7.5-2.1 11.2-1.2 5 2.1 7.1 7.5 10.8 11.1 5.6-5.2 13.8-7.6 21.2-5.1 2.4.8 3.6 3.2 4.5 5.4 2.6 6.4.2 13.6-3.1 19.4-1.5 3.1-4.4 5-7.5 6.4 1.1 2.4 3 4.9 2.7 7.7-5.6 6.9-15.5 9.6-24.2 8.6.7 1.8 1.4 3.7 2.1 5.5 2.2-.4 4.5-1.4 6.6-.3 2.1.8 4.1 2.1 6.5 1.8 6.4-.6 12.8.8 19.2 1.5 2.3.5 5.1 1 6.6 3-.2.4-.7 1.1-.9 1.5-5.5 1.4-11.3 1.6-16.6 3.7-2.9 1.2-6.1.9-9.2.6-2.5 2.4-5.3 5.2-9 5.3-3.7 0-5.9-3.5-8.1-6-3.6 0-7.4-.8-10.6 1.3-3 2.3-6-1.5-9.3-1.1-8.6.2-17.3-.3-25.9.6-3.6-.9-7.2-1.8-11-1.3-.2 6.6 3.2 12.3 6.4 17.8 2.2 3.9 5.3 8.1 10 8.9 3.7.7 9.1 1.3 10.9-2.9 1.7-4.8-1.3-9.6-3.5-13.8-2.8.7-6.1 1.2-7.4 4.1.6.3 1.9 1 2.5 1.4.2-.8.5-2.4.6-3.1 2.5.5 6.2 2.7 4.3 5.7-2.5 2.3-7.4 3.1-9.6 0-1.6-2.3-4.3-5.6-1.9-8.2 2.8-2.9 6.2-6.3 10.6-5.5 4.3-.1 7.9 2.8 9.5 6.6 2.7 5.1 4.3 11.8 1.1 17-6.1 5.8-15.8 6.8-23.4 3.2-5.5-3.2-8.7-8.9-12-14-3.2-4.9-4.5-10.7-5.6-16.4-6-.8-12.2.2-18.2-.8-1.9-2-1.2-4.9-1.3-7.4 2.9-1 5.7-2.7 8.9-2.3 3.3.4 6.6 0 9.7-1.1-.4-9.4 2.2-18.7 5.9-27.2 3-7.6 8.8-14.7 17-16.9 7.4-3 15.3-.8 22.5 1.8 1.4-5.3 1.8-12.1 7-15.3zm6.3 1.3c-5.3.5-8.6 5.5-9.5 10.4-1.6 5.5-.2 11.3 1.7 16.6 2.4 4.4 7.3 7.3 12.3 7.6 3.6 0 6.9-2.6 8.1-5.9 2.3-5.6 2.9-12.1 1.1-18-1.4-2-3.4-3.4-4.8-5.4-2-2.9-5.1-6-8.9-5.3zm17.7 11.8c-.5 4.4.1 8.9 0 13.4 4.5 1.1 8.7 3.4 11.5 7.2 2.4-2.3 5.4-4.1 7-7.1 2.7-4.6 4.3-10.4 2.1-15.5-1.1-3.1-4.7-4.5-7.8-4.4-4.8.5-9.9 2.2-12.8 6.4zm-51.3 3.6C42.5 63 36.6 69.7 34.1 77c-2.1 1.8-2.4 4.9-2.7 7.5l-.7.1c-1 5-4.1 9.7-3.1 15-.1.5-.4 1.4-.5 1.9 1.4-.3 3.5.4 4.2-1.3 2-4.1 4.7-7.8 7.3-11.6 1.5-.1 3.5-2 4.5-.2-.3 2.5-1.9 4.9-1.6 7.5.4 2.4 1.5 4.6 2.3 6.9l2.3.4c-1.1-1.7-2.3-3.3-2.9-5.2 0-2.8 1-5.6 2.3-8.1 2.4-1.4 2.7 2 3.8 3.4 2.5 1.2 5.3 1.5 8 1.9 3.4 1.7 7.5 1.1 10.9-.3l-.4-3.1c1-1.1 2.2-2.1 3.4-3.1.4 3.8-.5 7.9 1.6 11.4-.3-3.6-.3-7.3.8-10.9l2.8-.4c-.3 2-.7 4.1-1 6.1.5.1 1.4.1 1.9.2 4.3.3 8.8-.4 12.4-2.8 1-.5 2-.9 3.1-1.3 1.5 1.1 3.3 2.4 5.2 1.8 5.3-1.2 11.2-2.1 15.4-5.9.5-1.8-1.1-3.4-1.6-5.1-2.1-4.4-6.8-6.2-11.2-7.4-2 2.6-3.6 5.6-6.2 7.7-4.5 2.6-10 1.4-14.5-.8-1.9-1.7-4-3.1-5.6-5.1-1.7-2.5-2.4-5.4-3.2-8.2-.5-1.5-.3-3.7-2-4.5-5.7-2.9-12.6-4.8-18.9-2.4zm-16.1 41.6c2 0 4.1-.2 6.1-.4-.6-3-1-6.1-1.3-9.2-3 2.3-4.4 5.9-4.8 9.6zm12.1-6.5c-.1 2.3.1 4.7 1.2 6.8 2.3-1.1 4.2-2.7 4.1-5.5-1.8-.5-3.6-.9-5.3-1.3zm42.1 0c.5 2.4 2.3 4.1 4.3 5.3-.7-2.3-1.9-4.4-4.3-5.3zm-13 2.4c-.1 1.4-.1 2.7-.1 4.1 1.8-.1 3.5-.7 5.2-1.3 2.9 2.1 6.4 2.9 9.9 2.9-2-2-4.1-4-6-6.2-3 .2-6 .4-9 .5zM53 103.2h3.3c0-1.4-.1-2.8-.2-4.2-1.1 1.4-2.1 2.8-3.1 4.2zm5.7-3.5c-.3 1.5-.6 3-.8 4.5 4.8.1 9.6.1 14.4-.1-1-1.6-1.5-3.7-3.2-4.7-3.4-.2-6.9.2-10.4.3zm16.8 4.8c-.1 1.6-.1 3.2-.1 4.8 1.6-2.5 3.7-4.7 5.5-7-1.9.7-3.7 1.4-5.4 2.2zm22.3-2.2c.2 1.4.8 1.6 2 .8-.1-1.4-.8-1.7-2-.8zm-4.2 1.1c0 3.3 3-1.5 0 0zm-85.4 8.2c2.5.2 5 .3 7.5.2-.8-2.7-1-5.5-.3-8.3-3.8.2-8.9 3.8-7.2 8.1zm9.7-.9c.4-2.3.9-4.5 1.2-6.8-2.5 1.5-3.2 4.6-1.2 6.8zm21.5-4.3c-.3 2.2 2.2 3 3.5 4.3-.6-2.2-1.3-4.4-2-6.5-.6.7-1.1 1.4-1.5 2.2zm-15.1 1.4c4 0 8 .2 12 .2 0-.6-.1-1.9-.1-2.5-3.2-.2-6.5-.6-9.7 0-1.2.1-2.2 1-2.2 2.3zm19-2.6c.1.7.5 2 .6 2.7 4.4.6 8.9-.4 13.2.5 5.2.8 10.5.3 15.8.4 0-.6.1-1.7.1-2.3-5.5-.6-11.2-.9-16.7.1-4.4 1-8.5-2-13-1.4zm51.5 1.1c-.1.4-.4 1.2-.5 1.5 5.6-.3 11.5 1.9 16.7-.5-1.3-1.1-2.8-2.2-4.7-2-3.8.1-7.7.3-11.5 1zm20.1-1.1c-.8 2.3-1.7 4.5-2.4 6.9 3.7-.1 7.2-1.2 10.6-2.5-.2-.8-.5-2.4-.6-3.2-2.5-.4-5.1-.9-7.6-1.2zm-92.7 6.3c-.1-1.9-.4-3.9-.6-5.8-.8 2-1.5 4.4.6 5.8zm57.3-4.2c3.3.3 8.6 2.4 10.5-1.2-3.5-.2-7.5-1-10.5 1.2zm-54.3 2.1c.1.4.4 1.2.6 1.6 4.3.5 8.6.4 12.9-.2-4.3-1.6-9-1.4-13.5-1.4zm54.5.1c-.1.4-.5 1.3-.6 1.7 9.9.3 19.9-1.1 29.6.6-.1-.6-.4-1.7-.5-2.3-4.6-.1-9.3.3-13.9.4-4.8.2-9.7-1.2-14.6-.4zm-33.6.8c2.9 2.9 7.6 1.3 11.3 1.8 5.4-.5 11.2 1.2 16.2-1.2-9.1-.7-18.3-1.2-27.5-.6zm30.4.2c-1.6 3 3.3.2 0 0zm-47.2 2.3c-.3 7.7 3.9 14.5 7.9 20.7 3.6 4.9 8.6 10 15.2 9.6-3.2-.6-6.3-1.8-8.8-4-4.1-2.9-5.9-7.6-8.3-11.8-1.7-3-2.6-6.3-3.4-9.6-.6-1.8-.8-3.9-2.6-4.9zm65.7 1.7c2.4 3.1 6.2 1.1 8.5-1-2.7 1.1-5.6 1.6-8.5 1zm-42.9 6.3c2.8.2 6.7-.6 8.2 2.5 2.1 3.9 4 8.4 3.2 13-.4 2.9-3.2 4.3-5.1 6.2 3.9-1.3 7.5-4.7 7.1-9.1-.6-4.3-2.1-8.8-5.1-12-2.2-2.5-5.7-1.7-8.3-.6zm61.5-57.5c1.3-2.1 3-3.9 5.6-4 .6 2.2.7 4.6-.1 6.8-2.3.2-4.1-1-5.5-2.8zm-34.3-.1c1.8-1.7 4.5-.7 6.6-.3.3 2.2.3 5-1.9 6.3-3.2 2.1-7.2-3.3-4.7-6zm-.4 59.7c3-.5 6.4-.9 9.1.8 1.7.9 1.3 3 1.5 4.5-.1 17.1 0 34.2-.1 51.3-1.2-.1-2.5-.1-3.7-.2 0-17.7.2-35.5-.1-53.2-1.9-.8-4-.8-5.8.1-.1 19.1.1 38.1-.1 57.1h-3.6c-.3-18.4 0-36.8-.1-55.2-.3-2 .4-4.7 2.9-5.2zm31.9-.4h4.1c0 6.5-.2 13.1.1 19.7 1.8 0 3.6.1 5.4.1v2.8c-1.8.1-3.6.1-5.4.2-.2 12.7-.1 25.3 0 38h-4.2c.1-11.7.1-23.4 0-35.1.4-2-2-3-2.1-4.8.8-1.3 2.3-2.5 2.1-4.2.2-5.5 0-11.1 0-16.7zm77.7-.1c1.2 0 2.4.1 3.6.1 0 17.6.1 35.1 0 52.7.3 2.6-2.4 4.1-4.7 4.2-2.9.2-7 .5-8.6-2.6-.4-8.8-.1-17.7-.2-26.6.1-4.9 6.4-4 9.7-4.2.2-7.8-.1-15.7.2-23.6zm-5.8 27.1c-.6 6.2-.1 12.5-.3 18.8.1 2.5-.3 5.2.5 7.6 1.8 1 5.6 1.1 5.4-1.7.3-6 0-12 .1-17.9-.1-2.1.3-4.4-.6-6.4-1.5-1.2-3.5-.3-5.1-.4zm-89-2.8c3-.8 6.6-1 9.3.9 1.7 1 1.2 3.1 1.3 4.7-.1 7.7.1 15.4-.1 23.1.2 3.6-4.1 4.5-6.9 4.3-2.7 0-6.7-.8-6.4-4.3-.2-7.7 0-15.4-.1-23.1 0-2.3.3-5.2 2.9-5.6zm1.2 3c-.4 8.7-.3 17.5-.1 26.3 1.8.5 3.7.5 5.5.2.7-8.3.4-16.6.3-24.8-.2-3-3.8-2-5.7-1.7zm26.8.6c-.2-3 3.3-4.1 5.7-4.2 2.6-.1 6.1 0 7.5 2.5.9 3.5.4 7.1.5 10.6-.2 2.3.4 4.9-1.1 6.9-2.5 1.9-5.9 1.4-8.9 1.5 0 2.7-.5 5.6.5 8.2 1.5 1.2 3.4.5 5.1.4.2-1.7.4-3.4.5-5.1h3.9c-.1 2.9.5 7.3-3.3 8.1-3.4.6-9.4 1.3-10.4-3-.2-8.7-.1-17.3 0-25.9zm4 .3a58 58 0 0 0-.1 12.5c.8 2.4 3.7 1.4 5.5 1.2.3-4.9.5-9.9 0-14.8-1.7.1-4.7-1.2-5.4 1.1zm16.6-3.4c3.1-1.5 7.1-1.5 10.1.1 2.5 1.5 1.5 4.7 1.7 7-.3 7.5.4 15.1-.3 22.6-1.7 3.4-6.3 2.4-9.4 2.7v15h-3.9c-.1-13.8 0-27.5-.1-41.3.1-2.1-.3-5 1.9-6.1zm2.4 2.3c-.6 6.2-.1 12.5-.3 18.8.1 2.5-.3 5.2.5 7.6 1.7 1.1 5.6 1.1 5.4-1.7.1-7.6.2-15.2 0-22.8-.1-3-3.7-2-5.6-1.9zm16.6-2.4c3.3-1.5 7.7-1.5 10.8.6 1.3 2.7.6 5.7.8 8.6-.2 6.9.4 13.9-.3 20.8-1.8 2.6-5.4 2.5-8.2 2.4-2.3-.1-5.2-1.5-4.9-4.2 0-4.9-.4-9.8.3-14.6 1.7-3.4 6.3-2.3 9.5-2.7-.1-2.7.3-5.5-.5-8.1-1.5-.9-3.4-.5-5-.4l-.9 5.4c-1.1 0-2.2 0-3.3.1-.1-2.7-1.1-6.3 1.7-7.9zm2.2 14.3c-.7 4.9-.6 9.9 0 14.9 1.8.3 3.6.2 5.4-.3.3-4.8.3-9.6 0-14.4-1.7-.5-3.5-.5-5.4-.2zm34-15.4c1.2.1 2.4.1 3.7.2 0 2.3-.1 4.6.1 6.8.7 1.4 2.6 1 3.9 1.6 0 .5 0 1.7.1 2.2-1.3.1-2.6.3-4 .4-.1 2.6-.1 5.2-.2 7.8-1.2 0-2.3 0-3.5.1-.1-2.6-.2-5.3-.2-7.9l-3.8-.3c0-.7-.1-2-.1-2.7l3.9-.3c0-2.6 0-5.3.1-7.9zm13 .1h3.9c0 2.6.1 5.2.2 7.8 1.2.2 2.4.4 3.7.6v2.3c-1.2.1-2.5.3-3.7.4-.1 2.6-.1 5.2-.2 7.8h-3.7c-.1-2.6-.2-5.2-.2-7.8-1.2-.1-2.5-.3-3.7-.4v-2.3c1.2-.2 2.4-.4 3.7-.6-.2-2.6-.1-5.2 0-7.8z"/><path fill="#fdfefe" d="M83.8 45.7c3.8-.7 6.9 2.4 8.9 5.2 1.3 2 3.4 3.5 4.8 5.4 1.8 5.9 1.2 12.3-1.1 18-1.2 3.3-4.5 5.9-8.1 5.9-5-.3-9.9-3.2-12.3-7.6-1.9-5.3-3.3-11-1.7-16.6.9-4.8 4.2-9.8 9.5-10.3zm-4.5 17.5c-2.5 2.7 1.5 8.1 4.7 6 2.2-1.4 2.3-4.1 1.9-6.3-2.1-.3-4.8-1.4-6.6.3zm22.2-5.7c2.9-4.2 8.1-5.9 12.9-6.5 3.1-.1 6.7 1.3 7.8 4.4 2.2 5.1.6 10.9-2.1 15.5-1.6 3-4.7 4.8-7 7.1-2.8-3.8-7-6-11.5-7.2-.1-4.4-.6-8.9-.1-13.3zm12.1 5.8c1.3 1.8 3.2 3 5.5 2.8.8-2.2.8-4.6.1-6.8-2.5.1-4.3 1.9-5.6 4zm-95.7 47.4c-2-2.2-1.3-5.3 1.2-6.8l-1.2 6.8zm4.3.8c-2.1-1.4-1.5-3.8-.6-5.8.3 1.9.5 3.9.6 5.8z"/><path fill="#97d095" d="M50.2 61.1c6.3-2.4 13.2-.6 18.9 2.4 1.7.8 1.5 3 2 4.5-.6.2-1.8.5-2.4.7 0-1.2.1-2.4.1-3.6-4.6-.5-9.2-1.8-13.7-2.8-3.3-.8-6.6.8-9.2 2.6-2.1 1.2-2.2 3.9-2.8 6-.8-.9-1.6-1.7-2.4-2.6-1.8 3.2-3.2 7-6.6 8.8 2.5-7.4 8.4-14 16.1-16z"/><path fill="#7dc56f" d="M46 64.8c2.7-1.8 6-3.4 9.2-2.6 4.5 1 9.1 2.3 13.7 2.8 0 1.2-.1 2.4-.1 3.6-2.3.8-4.8 1.1-7.2.6-3.6-.9-7 .9-10.3 2.2C47.8 72.9 44 74 40.7 76c-2.8 1.8-4 4.9-5 7.9-1.4.2-2.9.5-4.3.7.3-2.6.6-5.7 2.7-7.5 3.4-1.9 4.8-5.6 6.6-8.8.8.8 1.6 1.7 2.4 2.6.7-2.2.8-4.8 2.9-6.1z"/><path fill="#98cd70" d="M51.4 71.4c3.3-1.3 6.7-3 10.3-2.2 2.4.6 4.9.3 7.2-.6.6-.2 1.8-.5 2.4-.7.8 2.8 1.5 5.8 3.2 8.2 1.6 2 3.7 3.4 5.6 5.1l-1.1 3c-5.6-1.4-9.3-6.5-15-7.7-7.7-2.5-15.6 1.4-23.2-.5 3.3-2 7-3.1 10.6-4.6z"/><path fill="#b0d579" d="M100.6 74.5c4.4 1.2 9.1 3 11.2 7.4-.9 1.4-1.8 2.9-2.6 4.3-5.9-.7-10.8 3.6-16.3 4.9-1 .4-2.1.9-3.1 1.3-2.8-1.3-6.3-3-8.8-.3l-3-1.5-.6 4.6c-.5 0-1.4-.1-1.9-.2.3-2 .7-4.1 1-6.1l-2.8.4c-1 3.5-1 7.2-.8 10.9-2-3.5-1.2-7.6-1.6-11.4-1.2.9-2.4 1.9-3.4 3.1-5.8 0-11.6-.4-17.4-.7 2.3 1.4 4.6 2.7 6.9 4.1-2.7-.4-5.5-.7-8-1.9-1.1-1.4-1.3-4.9-3.8-3.4-1.3 2.5-2.4 5.2-2.3 8.1.6 1.9 1.9 3.5 2.9 5.2l-2.3-.4c-.8-2.3-1.9-4.5-2.3-6.9-.4-2.6 1.2-5 1.6-7.5-1.1-1.9-3 0-4.5.2-1.5.4-3.5-.2-4.5 1.3-2.4 3.1-4.5 6.4-6.5 9.7-1-5.3 2.1-10 3.1-15l.7-.1c1.4-.2 2.9-.5 4.3-.7 1-3 2.2-6.1 5-7.9 7.6 1.9 15.5-2 23.1.7 5.7 1.2 9.4 6.3 15 7.7l1.1-3c4.4 2.2 9.9 3.5 14.5.8 2.5-2.1 4-5.1 6.1-7.7z"/><path fill="#8fca70" d="M111.8 81.9c.6 1.6 2.1 3.3 1.6 5.1-4.2 3.8-10 4.8-15.4 5.9-2 .6-3.7-.7-5.2-1.8 5.5-1.3 10.5-5.6 16.3-4.9.9-1.4 1.8-2.8 2.7-4.3z"/><path fill="#86c771" d="M34.2 90c1-1.5 3-.9 4.5-1.3-2.6 3.8-5.3 7.4-7.3 11.6-.7 1.7-2.8 1-4.2 1.3.1-.5.4-1.4.5-1.9 2-3.3 4-6.7 6.5-9.7z"/><path fill="#6bbb61" d="M77.9 90.7l3 1.5c2.5-2.8 6-1 8.8.3-3.7 2.5-8.1 3.1-12.4 2.8l.6-4.6z"/><path fill="#77c36c" d="M50.4 91.3c5.8.3 11.6.7 17.4.7l.4 3.1c-3.4 1.4-7.5 2-10.9.3-2.3-1.3-4.6-2.7-6.9-4.1zm-21.1 21.5c1.8 1.1 2 3.2 2.5 4.9.8 3.3 1.7 6.6 3.4 9.6 2.4 4.2 4.2 9 8.3 11.8 2.5 2.2 5.5 3.4 8.8 4-6.6.3-11.6-4.7-15.2-9.6-3.8-6.3-8.1-13-7.8-20.7zm65.7 1.7c2.9.6 5.8.1 8.5-1-2.3 2.1-6 4-8.5 1zm-42.9 6.3c2.6-1.1 6.1-1.9 8.3.5 3.1 3.2 4.5 7.7 5.1 12 .4 4.4-3.2 7.8-7.1 9.1 1.8-1.9 4.7-3.3 5.1-6.2.8-4.5-1.1-9.1-3.2-13-1.5-3.1-5.4-2.2-8.2-2.4z"/><path fill="#6eab61" d="M88.3 96.2c2.4.9 3.7 3 4.3 5.3-2.1-1.1-3.8-2.8-4.3-5.3z"/><path fill="#6ca65f" d="M53 103.2c1-1.5 2-2.9 3.2-4.2.1 1.4.1 2.8.2 4.2H53z"/><path fill="#72b164" d="M75.5 104.5c1.8-.8 3.6-1.6 5.4-2.2-1.8 2.3-3.9 4.5-5.5 7 0-1.6 0-3.2.1-4.8z"/><path fill="#6aa45d" d="M97.8 102.3c1.2-.9 1.8-.6 2 .8-1.1.9-1.8.6-2-.8z"/><path fill="#69a25c" d="M93.6 103.4c3-1.5 0 3.3 0 0z"/><path fill="#d07b84" d="M8.2 111.6c-1.6-4.3 3.4-8 7.2-8.1-.8 2.8-.5 5.6.3 8.3-2.5.1-5 0-7.5-.2z"/><path fill="#619556" d="M39.4 106.4c.5-.8 1-1.5 1.5-2.3.7 2.2 1.4 4.4 2 6.5-1.3-1.2-3.9-2-3.5-4.2z"/><path fill="#ddc277" d="M24.3 107.8c0-1.3 1-2.2 2.2-2.3 3.2-.5 6.5-.2 9.7 0 0 .6.1 1.9.1 2.5-4 0-8-.2-12-.2zm.9 1.6c4.5 0 9.2-.2 13.5 1.4-4.3.6-8.7.7-12.9.2-.2-.4-.5-1.2-.6-1.6zm20.9.9c9.1-.6 18.4-.1 27.5.6-5 2.4-10.9.7-16.2 1.2-3.7-.5-8.4 1.1-11.3-1.8z"/><path fill="#dcc576" d="M43.3 105.2c4.5-.6 8.6 2.4 13.1 1.4 5.5-1 11.2-.6 16.7-.1 0 .6-.1 1.7-.1 2.3-5.3-.1-10.6.4-15.8-.4-4.4-.9-8.8.1-13.2-.5-.2-.7-.5-2-.7-2.7z"/><path fill="#f5d875" d="M94.8 106.3c3.8-.8 7.7-.9 11.6-1 1.8-.2 3.3 1 4.7 2-5.3 2.4-11.2.2-16.7.5.1-.3.3-1.1.4-1.5zm-15.3 1c3-2.3 7-1.4 10.5-1.2-1.9 3.6-7.2 1.5-10.5 1.2zm.2 2.2c4.9-.8 9.8.5 14.6.4 4.6-.1 9.3-.5 13.9-.4.1.6.4 1.7.5 2.3-9.8-1.7-19.8-.3-29.6-.6.2-.4.5-1.2.6-1.7z"/><path fill="#fff" d="M114.9 105.2c2.5.3 5.1.8 7.6 1.1.2.8.5 2.4.6 3.2-3.4 1.3-7 2.4-10.6 2.5.7-2.2 1.7-4.5 2.4-6.8z"/><path fill="#5c8b50" d="M76.5 110.5c3.3.2-1.6 3 0 0z"/></svg>